PathFileType	4	(X/Y/Z)	C:\Users\italobelli\Desktop\GitHub\PTbot_officialCBL\Personal_Results\ABD03_noisy1.trc
DataRate	CameraRate	NumFrames	NumMarkers	Units	OrigDataRate	OrigDataStartFrame	OrigNumFrames
106.533333	106.533333	34	9	m	106.533333	201	800
Frame#	Time		gu		centelbow		EpL		centpxt8		centijc7		ij		ts		aa		ai
			X1	Y1	Z1	X2	Y2	Z2	X3	Y3	Z3	X4	Y4	Z4	X5	Y5	Z5	X6	Y6	Z6	X7	Y7	Z7	X8	Y8	Z8	X9	Y9	Z9

201	1.8773	-0.1051	0.05892	0.12452	-0.18348	0.12161	0.34885	-0.19949	0.14441	0.33267	-0.046816	-0.15316	-0.008669	-0.046816	0.031938	-0.008669	0	0	0	-0.1251	-0.0079814	0.029064	-0.14413	0.07213	0.11527	-0.12857	-0.08782	0.10956
202	1.8867	-0.10528	0.059137	0.1243	-0.18416	0.12381	0.34793	-0.20009	0.14651	0.33153	-0.046816	-0.15316	-0.008669	-0.046816	0.031938	-0.008669	0	0	0	-0.12521	-0.0081145	0.029159	-0.14436	0.072335	0.11503	-0.12876	-0.087632	0.10997
203	1.8961	-0.10545	0.059351	0.12409	-0.18483	0.126	0.347	-0.20068	0.1486	0.33038	-0.046816	-0.15316	-0.008669	-0.046816	0.031938	-0.008669	0	0	0	-0.12531	-0.0082466	0.029255	-0.14458	0.072539	0.11479	-0.12895	-0.087442	0.11037
204	1.9055	-0.10562	0.059563	0.12387	-0.18547	0.12818	0.34606	-0.20124	0.15068	0.32923	-0.046816	-0.15316	-0.008669	-0.046816	0.031938	-0.008669	0	0	0	-0.12542	-0.0083779	0.029353	-0.1448	0.072742	0.11456	-0.12914	-0.087251	0.11078
205	1.9149	-0.10578	0.059772	0.12366	-0.18609	0.13036	0.34512	-0.20179	0.15275	0.32808	-0.046816	-0.15316	-0.008669	-0.046816	0.031938	-0.008669	0	0	0	-0.12553	-0.0085082	0.029452	-0.14502	0.072945	0.11432	-0.12933	-0.08706	0.11119
206	1.9243	-0.10594	0.059979	0.12344	-0.18669	0.13252	0.34416	-0.20232	0.15481	0.32692	-0.046816	-0.15316	-0.008669	-0.046816	0.031938	-0.008669	0	0	0	-0.12563	-0.0086377	0.029552	-0.14523	0.073146	0.11409	-0.12952	-0.086868	0.1116
207	1.9337	-0.10608	0.060183	0.12323	-0.18726	0.13468	0.3432	-0.20283	0.15685	0.32575	-0.046816	-0.15316	-0.008669	-0.046816	0.031938	-0.008669	0	0	0	-0.12574	-0.0087663	0.029653	-0.14544	0.073347	0.11385	-0.12971	-0.086675	0.11201
208	1.9431	-0.10622	0.060385	0.12302	-0.18781	0.13683	0.34223	-0.20332	0.15889	0.32458	-0.046816	-0.15316	-0.008669	-0.046816	0.031938	-0.008669	0	0	0	-0.12585	-0.0088941	0.029756	-0.14565	0.073547	0.11362	-0.1299	-0.086481	0.11241
209	1.9524	-0.10635	0.060584	0.12281	-0.18833	0.13897	0.34126	-0.20378	0.16091	0.32341	-0.046816	-0.15316	-0.008669	-0.046816	0.031938	-0.008669	0	0	0	-0.12595	-0.0090211	0.02986	-0.14585	0.073745	0.11338	-0.13008	-0.086287	0.11283
210	1.9618	-0.10648	0.060781	0.1226	-0.18882	0.1411	0.34027	-0.20422	0.16293	0.32224	-0.046816	-0.15316	-0.008669	-0.046816	0.031938	-0.008669	0	0	0	-0.12606	-0.0091473	0.029966	-0.14604	0.073943	0.11315	-0.13027	-0.086093	0.11324
211	1.9712	-0.10659	0.060975	0.12239	-0.18928	0.14322	0.33928	-0.20464	0.16493	0.32106	-0.046816	-0.15316	-0.008669	-0.046816	0.031938	-0.008669	0	0	0	-0.12616	-0.0092728	0.030073	-0.14623	0.07414	0.11292	-0.13045	-0.085898	0.11365
212	1.9806	-0.1067	0.061167	0.12218	-0.18971	0.14533	0.33829	-0.20503	0.16692	0.31989	-0.046816	-0.15316	-0.008669	-0.046816	0.031938	-0.008669	0	0	0	-0.12627	-0.0093975	0.030181	-0.14641	0.074335	0.11269	-0.13063	-0.085703	0.11406
213	1.99	-0.10679	0.061355	0.12197	-0.19011	0.14744	0.33729	-0.20539	0.1689	0.31871	-0.046816	-0.15316	-0.008669	-0.046816	0.031938	-0.008669	0	0	0	-0.12637	-0.0095215	0.030291	-0.14658	0.07453	0.11246	-0.13081	-0.085508	0.11448
214	1.9994	-0.10687	0.061542	0.12176	-0.19048	0.14953	0.33628	-0.20573	0.17087	0.31753	-0.046816	-0.15316	-0.008669	-0.046816	0.031938	-0.008669	0	0	0	-0.12647	-0.0096448	0.030403	-0.14675	0.074723	0.11224	-0.13099	-0.085313	0.11489
215	2.0088	-0.10695	0.061728	0.12156	-0.19081	0.15163	0.33525	-0.20603	0.17284	0.31634	-0.046816	-0.15316	-0.008669	-0.046816	0.031938	-0.008669	0	0	0	-0.12658	-0.0097678	0.030516	-0.14691	0.074917	0.11201	-0.13117	-0.085115	0.11531
216	2.0181	-0.10703	0.061917	0.12135	-0.19111	0.15374	0.33421	-0.20631	0.17482	0.31512	-0.046816	-0.15316	-0.008669	-0.046816	0.031938	-0.008669	0	0	0	-0.12668	-0.0098911	0.030634	-0.14708	0.075112	0.11177	-0.13135	-0.084911	0.11573
217	2.0275	-0.10711	0.062108	0.12114	-0.19137	0.15587	0.33313	-0.20655	0.17681	0.31388	-0.046816	-0.15316	-0.008669	-0.046816	0.031938	-0.008669	0	0	0	-0.12678	-0.010014	0.030756	-0.14725	0.075309	0.11154	-0.13154	-0.0847	0.11616
218	2.0369	-0.10719	0.062301	0.12094	-0.1916	0.15801	0.33203	-0.20676	0.17881	0.31262	-0.046816	-0.15316	-0.008669	-0.046816	0.031938	-0.008669	0	0	0	-0.12689	-0.010138	0.030881	-0.14742	0.075507	0.1113	-0.13173	-0.084484	0.11658
219	2.0463	-0.10727	0.062497	0.12073	-0.1918	0.16016	0.33091	-0.20695	0.18082	0.31133	-0.046816	-0.15316	-0.008669	-0.046816	0.031938	-0.008669	0	0	0	-0.12699	-0.010262	0.031009	-0.1476	0.075707	0.11105	-0.13192	-0.084263	0.11701
220	2.0557	-0.10735	0.062695	0.12052	-0.19197	0.16233	0.32976	-0.2071	0.18284	0.31003	-0.046816	-0.15316	-0.008669	-0.046816	0.031938	-0.008669	0	0	0	-0.1271	-0.010385	0.031141	-0.14778	0.075908	0.11081	-0.13212	-0.084035	0.11744
221	2.0651	-0.10743	0.062894	0.12032	-0.19211	0.1645	0.32859	-0.20722	0.18487	0.3087	-0.046816	-0.15316	-0.008669	-0.046816	0.031938	-0.008669	0	0	0	-0.1272	-0.010509	0.031275	-0.14796	0.076109	0.11056	-0.13232	-0.083803	0.11788
222	2.0745	-0.10751	0.063094	0.12011	-0.19222	0.16668	0.32741	-0.20732	0.1869	0.30736	-0.046816	-0.15316	-0.008669	-0.046816	0.031938	-0.008669	0	0	0	-0.12731	-0.010633	0.031413	-0.14814	0.076312	0.11031	-0.13252	-0.083567	0.11832
223	2.0839	-0.1076	0.063295	0.11991	-0.1923	0.16887	0.3262	-0.20738	0.18893	0.30599	-0.046816	-0.15316	-0.008669	-0.046816	0.031938	-0.008669	0	0	0	-0.12742	-0.010757	0.031554	-0.14832	0.076515	0.11005	-0.13273	-0.083325	0.11875
224	2.0932	-0.10768	0.063498	0.1197	-0.19234	0.17107	0.32497	-0.20742	0.19097	0.30461	-0.046816	-0.15316	-0.008669	-0.046816	0.031938	-0.008669	0	0	0	-0.12753	-0.01088	0.031698	-0.14851	0.076719	0.1098	-0.13293	-0.083079	0.11919
225	2.1026	-0.10776	0.063701	0.1195	-0.19236	0.17326	0.32372	-0.20743	0.19301	0.30321	-0.046816	-0.15316	-0.008669	-0.046816	0.031938	-0.008669	0	0	0	-0.12763	-0.011004	0.031844	-0.14869	0.076923	0.10954	-0.13314	-0.08283	0.11964
226	2.112	-0.10784	0.063904	0.11929	-0.19235	0.17546	0.32246	-0.20742	0.19505	0.3018	-0.046816	-0.15316	-0.008669	-0.046816	0.031938	-0.008669	0	0	0	-0.12774	-0.011127	0.031993	-0.14888	0.077128	0.10928	-0.13335	-0.082576	0.12008
227	2.1214	-0.10791	0.064108	0.11909	-0.19231	0.17767	0.32118	-0.20737	0.19709	0.30037	-0.046816	-0.15316	-0.008669	-0.046816	0.031938	-0.008669	0	0	0	-0.12785	-0.01125	0.032145	-0.14907	0.077332	0.10902	-0.13357	-0.08232	0.12052
228	2.1308	-0.10799	0.064311	0.11888	-0.19225	0.17987	0.31989	-0.2073	0.19913	0.29893	-0.046816	-0.15316	-0.008669	-0.046816	0.031938	-0.008669	0	0	0	-0.12796	-0.011373	0.032299	-0.14926	0.077537	0.10876	-0.13378	-0.082059	0.12097
229	2.1402	-0.10807	0.064515	0.11868	-0.19216	0.18207	0.31858	-0.20721	0.20116	0.29748	-0.046816	-0.15316	-0.008669	-0.046816	0.031938	-0.008669	0	0	0	-0.12807	-0.011495	0.032455	-0.14944	0.077741	0.1085	-0.134	-0.081796	0.12141
230	2.1496	-0.10815	0.064717	0.11848	-0.19204	0.18427	0.31726	-0.20709	0.20319	0.29601	-0.046816	-0.15316	-0.008669	-0.046816	0.031938	-0.008669	0	0	0	-0.12818	-0.011617	0.032613	-0.14963	0.077945	0.10824	-0.13422	-0.08153	0.12186
231	2.1589	-0.10823	0.064919	0.11827	-0.19189	0.18646	0.31592	-0.20695	0.20522	0.29454	-0.046816	-0.15316	-0.008669	-0.046816	0.031938	-0.008669	0	0	0	-0.12829	-0.011739	0.032773	-0.14982	0.078149	0.10798	-0.13443	-0.081262	0.1223
232	2.1683	-0.1083	0.06512	0.11807	-0.19172	0.18865	0.31457	-0.20678	0.20723	0.29306	-0.046816	-0.15316	-0.008669	-0.046816	0.031938	-0.008669	0	0	0	-0.1284	-0.01186	0.032934	-0.15001	0.078352	0.10772	-0.13465	-0.080992	0.12275
233	2.1777	-0.10838	0.06532	0.11787	-0.19153	0.19083	0.31322	-0.20658	0.20924	0.29156	-0.046816	-0.15316	-0.008669	-0.046816	0.031938	-0.008669	0	0	0	-0.12851	-0.011981	0.033098	-0.1502	0.078554	0.10745	-0.13487	-0.080719	0.12319
234	2.1871	-0.10845	0.065518	0.11767	-0.19131	0.193	0.31185	-0.20637	0.21124	0.29006	-0.046816	-0.15316	-0.008669	-0.046816	0.031938	-0.008669	0	0	0	-0.12862	-0.012101	0.033263	-0.15038	0.078756	0.10719	-0.13509	-0.080445	0.12364
